<svg width="80" height="80" viewBox="0 0 80 80" fill="none" xmlns="http://www.w3.org/2000/svg">
<path d="M10.5667 24.8L40 41.8333L69.2333 24.8999" stroke="#2DD06E" stroke-width="2" stroke-linecap="round" stroke-linejoin="round"/>
<path d="M40 72.0333V41.7999" stroke="#2DD06E" stroke-width="2" stroke-linecap="round" stroke-linejoin="round"/>
<path d="M7.96671 30.5667C7.96671 25.9667 11.2666 20.3668 15.3 18.1334L33.1 8.23333C36.9 6.13333 43.1333 6.13333 46.9333 8.23333L64.7334 18.1334C68.7667 20.3668 72.0666 25.9667 72.0666 30.5667V49.4001C72.0666 54.0001 68.7667 59.6 64.7334 61.8334L46.9333 71.7335C43.1333 73.8335 36.9 73.8335 33.1 71.7335L15.3 61.8334C11.2666 59.6 7.96671 54.0001 7.96671 49.4001V46.6668" stroke="#2DD06E" stroke-width="2" stroke-linecap="round" stroke-linejoin="round"/>
<path d="M56.6667 44.1333V31.9334L36.4333 20.2334L32.9333 18.2333L25.0334 13.6666" stroke="#2DD06E" stroke-width="2" stroke-linecap="round" stroke-linejoin="round"/>
</svg>
