<svg width="80" height="80" viewBox="0 0 80 80" fill="none" xmlns="http://www.w3.org/2000/svg">
<path d="M54.1667 11.4666C59.7333 15.7333 63.3333 22.4333 63.3333 30C63.3333 34.8333 61.9 39.2667 59.4333 42.9667C55.8333 48.3 50.1333 52.0666 43.5 53.0333C42.3667 53.2333 41.2 53.3333 40 53.3333C38.8 53.3333 37.6333 53.2333 36.5 53.0333C29.8667 52.0666 24.1667 48.3 20.5667 42.9667C18.1 39.2667 16.6667 34.8333 16.6667 30C16.6667 17.1 27.1 6.66663 40 6.66663" stroke="#2DD06E" stroke-width="2" stroke-linecap="round" stroke-linejoin="round"/>
<path d="M70.8333 61.5667L65.3333 62.8666C64.1 63.1666 63.1333 64.1 62.8667 65.3334L61.7 70.2334C61.0667 72.9 57.6667 73.7001 55.9 71.6001L40 53.3334L24.1 71.6333C22.3333 73.7333 18.9333 72.9333 18.3 70.2666L17.1333 65.3666C16.8333 64.1333 15.8667 63.1667 14.6667 62.9L9.16667 61.6001C6.63334 61.0001 5.73334 57.8333 7.56667 56L20.5667 43C24.1667 48.3333 29.8667 52.1001 36.5 53.0667C37.6333 53.2667 38.8 53.3667 40 53.3667C41.2 53.3667 42.3667 53.2667 43.5 53.0667C50.1333 52.1001 55.8333 48.3333 59.4333 43L72.4333 56C74.2667 57.8 73.3667 60.9667 70.8333 61.5667Z" stroke="#2DD06E" stroke-width="2" stroke-linecap="round" stroke-linejoin="round"/>
<path d="M41.9333 19.9334L43.9 23.8667C44.1667 24.4 44.8667 24.9334 45.5 25.0334L49.0667 25.6333C51.3333 26 51.8667 27.6667 50.2333 29.3L47.4667 32.0667C47 32.5333 46.7333 33.4334 46.9 34.1L47.7 37.5334C48.3333 40.2334 46.9 41.3 44.5 39.8666L41.1667 37.9C40.5667 37.5333 39.5667 37.5333 38.9667 37.9L35.6333 39.8666C33.2333 41.2666 31.8 40.2334 32.4333 37.5334L33.2333 34.1C33.3667 33.4667 33.1333 32.5333 32.6667 32.0667L29.9 29.3C28.2667 27.6667 28.8 26.0333 31.0667 25.6333L34.6333 25.0334C35.2333 24.9334 35.9333 24.4 36.2 23.8667L38.1667 19.9334C39.1333 17.8 40.8667 17.8 41.9333 19.9334Z" stroke="#2DD06E" stroke-width="2" stroke-linecap="round" stroke-linejoin="round"/>
</svg>
